<svg viewBox="0 0 37 16" fill="none" xmlns="http://www.w3.org/2000/svg">
<path d="M11.1094 10.4883C10.9336 11.9922 10.377 13.1543 9.43945 13.9746C8.50846 14.7884 7.26823 15.1953 5.71875 15.1953C4.03906 15.1953 2.69141 14.5931 1.67578 13.3887C0.666667 12.1842 0.162109 10.5729 0.162109 8.55469V7.1875C0.162109 5.86589 0.396484 4.70378 0.865234 3.70117C1.34049 2.69857 2.01107 1.93034 2.87695 1.39648C3.74284 0.85612 4.74544 0.585938 5.88477 0.585938C7.39518 0.585938 8.60612 1.00911 9.51758 1.85547C10.429 2.69531 10.9596 3.86068 11.1094 5.35156H9.22461C9.06185 4.21875 8.70703 3.39844 8.16016 2.89062C7.61979 2.38281 6.86133 2.12891 5.88477 2.12891C4.68685 2.12891 3.74609 2.57161 3.0625 3.45703C2.38542 4.34245 2.04688 5.60221 2.04688 7.23633V8.61328C2.04688 10.1562 2.36914 11.3835 3.01367 12.2949C3.6582 13.2064 4.5599 13.6621 5.71875 13.6621C6.76042 13.6621 7.55794 13.4277 8.11133 12.959C8.67122 12.4837 9.04232 11.6602 9.22461 10.4883H11.1094ZM13.6777 15V0.78125H18.3262C19.8691 0.78125 21.028 1.10026 21.8027 1.73828C22.584 2.3763 22.9746 3.32031 22.9746 4.57031C22.9746 5.23438 22.7858 5.82357 22.4082 6.33789C22.0306 6.8457 21.5163 7.23958 20.8652 7.51953C21.6335 7.73438 22.2389 8.14453 22.6816 8.75C23.1309 9.34896 23.3555 10.0651 23.3555 10.8984C23.3555 12.1745 22.9421 13.1771 22.1152 13.9062C21.2884 14.6354 20.1198 15 18.6094 15H13.6777ZM15.5527 8.34961V13.4668H18.6484C19.5208 13.4668 20.2077 13.2422 20.709 12.793C21.2168 12.3372 21.4707 11.7122 21.4707 10.918C21.4707 9.20573 20.5397 8.34961 18.6777 8.34961H15.5527ZM15.5527 6.8457H18.3848C19.2051 6.8457 19.8594 6.64062 20.3477 6.23047C20.8424 5.82031 21.0898 5.26367 21.0898 4.56055C21.0898 3.7793 20.862 3.21289 20.4062 2.86133C19.9505 2.50326 19.2572 2.32422 18.3262 2.32422H15.5527V6.8457ZM26.1387 15V0.78125H30.1523C31.3893 0.78125 32.4831 1.05469 33.4336 1.60156C34.3841 2.14844 35.1165 2.92643 35.6309 3.93555C36.1517 4.94466 36.4154 6.10352 36.4219 7.41211V8.32031C36.4219 9.66146 36.1615 10.8366 35.6406 11.8457C35.1263 12.8548 34.3874 13.6296 33.4238 14.1699C32.4668 14.7103 31.3503 14.987 30.0742 15H26.1387ZM28.0137 2.32422V13.4668H29.9863C31.4316 13.4668 32.5547 13.0176 33.3555 12.1191C34.1628 11.2207 34.5664 9.94141 34.5664 8.28125V7.45117C34.5664 5.83659 34.1855 4.58333 33.4238 3.69141C32.6686 2.79297 31.5944 2.33724 30.2012 2.32422H28.0137Z" fill="white"/>
</svg>
