<svg version="1.2" baseProfile="tiny-ps" xmlns="http://www.w3.org/2000/svg" viewBox="0 0 20 20" width="20" height="20">
	<title>Header</title>
	<style>
		tspan { white-space:pre }
		.shp0 { fill: #ffffff } 
	</style>
	<g id="Header">
		<g id="Login / Search / cart">
			<path id="Icon" class="shp0" d="M19.84 18.98L14.98 14.12C16.29 12.62 17.08 10.66 17.08 8.53C17.08 3.82 13.25 0 8.55 0C3.85 0 0.02 3.83 0.02 8.53C0.02 13.23 3.85 17.06 8.55 17.06C10.69 17.06 12.64 16.27 14.14 14.96L19 19.82C19.12 19.94 19.27 20 19.42 20C19.57 20 19.73 19.94 19.84 19.82C20.07 19.59 20.07 19.21 19.84 18.98ZM1.22 8.53C1.22 4.48 4.51 1.2 8.55 1.2C12.59 1.2 15.88 4.49 15.88 8.53C15.88 12.57 12.59 15.86 8.55 15.86C4.51 15.86 1.22 12.57 1.22 8.53Z" />
		</g>
	</g>
</svg>